
<svg width="796" height="637" viewBox="0 0 494 302" fill="none" xmlns="http://www.w3.org/2000/svg" style="background-color: orange;">
  <rect width="995" height="796"/>
  <path d="M338.03 112.856C336.875 116.332 336.06 119.606 334.697 122.682C333.104 126.277 330.434 129.098 326 130.18C325.454 130.313 325.032 131.02 324.652 131.522C323.054 133.642 321.67 135.921 319.851 137.87C318.77 139.028 317.143 140.104 315.552 140.465C313.056 141.031 311.695 142.445 310.185 144.108C303.893 151.031 294.33 150.629 288.389 143.287C284.738 138.775 282.897 133.572 281.819 128.175C280.923 123.681 280.392 119.123 279.843 114.579C279.696 113.365 279.446 112.828 277.939 112.831C260.326 112.873 242.713 112.869 225.1 112.84C223.76 112.838 223.355 113.234 223.262 114.446C222.696 121.836 221.851 129.219 218.757 136.15C217.463 139.049 215.798 141.956 213.626 144.364C207.897 150.715 198.915 150.63 193.137 144.337C191.499 142.552 189.899 141.186 187.321 140.372C182.976 138.999 180.541 135.593 178.688 131.942C178.132 130.845 177.455 130.198 176.118 129.836C173.103 129.021 170.754 127.165 169.561 124.642C167.972 121.277 166.856 117.719 165.743 114.191C165.426 113.186 165.084 112.828 163.985 112.851C162.036 112.891 160.082 112.776 158.137 112.858C156.656 112.921 155.779 112.353 155.346 111.153C154.014 107.47 153.999 103.783 155.408 100.112C155.836 98.9963 156.686 98.4254 158.064 98.4592C160.077 98.5083 162.094 98.4389 164.108 98.4848C165.147 98.5087 165.455 98.1418 165.735 97.222C166.727 93.961 167.664 90.6514 169.116 87.5484C170.548 84.49 173.163 82.2835 176.859 81.293C177.446 81.1354 178.012 80.5938 178.365 80.0999C179.663 78.2832 180.729 76.3198 182.143 74.5842C183.923 72.3992 186.427 71.0679 189.327 70.2773C190.17 70.0473 190.952 69.4413 191.602 68.8614C193.164 67.4679 194.448 65.771 196.172 64.5851C200.725 61.4529 206.461 61.6173 210.975 64.785C214.474 67.241 216.609 70.5727 218.239 74.2038C221.454 81.3637 222.612 88.9095 223.208 96.5394C223.324 98.0274 223.765 98.5168 225.483 98.5114C242.902 98.4542 260.322 98.4646 277.741 98.4992C279.183 98.5019 279.747 98.1958 279.855 96.7722C280.449 89.0234 281.476 81.2997 284.984 74.1277C286.427 71.1787 288.401 68.2698 290.819 65.9169C295.85 61.0212 303.519 61.0644 308.641 65.9057C311.1 68.2302 313.409 70.3206 316.883 71.5717C320.774 72.9728 322.713 76.4108 324.515 79.7204C324.85 80.3345 325.483 81.0656 326.144 81.2439C330.142 82.3218 332.787 84.7957 334.307 88.0815C335.646 90.9755 336.453 94.0821 337.327 97.1337C337.605 98.1062 337.901 98.5326 339.067 98.4844C340.948 98.4061 342.839 98.5303 344.72 98.4551C346.326 98.3912 347.34 98.9715 347.805 100.337C349.022 103.912 349.022 107.492 347.797 111.064C347.36 112.336 346.438 112.933 344.879 112.878C342.493 112.793 340.101 112.856 338.03 112.856ZM251.753 111.712C264.481 111.712 277.21 111.703 289.939 111.726C291.137 111.729 292.069 111.659 292.438 110.371C293.333 107.236 293.378 104.131 292.422 101.003C292.106 99.9724 291.452 99.6676 290.298 99.6685C264.646 99.6923 238.993 99.6968 213.34 99.6577C211.931 99.6554 211.153 100.179 211.098 101.285C210.956 104.123 210.902 106.97 210.995 109.808C211.042 111.254 212.045 111.763 213.762 111.753C226.425 111.679 239.089 111.713 251.753 111.712ZM192.456 134.607C192.756 134.512 193.055 134.416 193.355 134.321C193.291 133.308 193.333 132.278 193.147 131.283C191.282 121.315 189.984 111.309 190.441 101.172C190.618 97.2454 190.812 93.3199 190.947 89.3925C190.977 88.5164 190.788 87.6344 190.7 86.7551C190.474 86.7349 190.247 86.7142 190.02 86.6939C187.696 89.6195 187.471 93.2402 186.418 96.5867C186.245 96.5597 186.072 96.5327 185.899 96.5056C186.736 91.4798 187.573 86.4535 188.41 81.4222C189.516 82.1898 190.591 83.2906 190.962 83.1227C191.815 82.7369 192.561 81.8162 192.929 80.9643C193.988 78.5115 194.882 75.9974 195.744 73.4798C195.994 72.7482 195.915 71.9247 195.987 71.1436C195.149 71.2543 194.311 71.37 193.471 71.4686C193.374 71.4799 193.264 71.3943 192.957 71.2741C193.898 70.1805 194.712 69.0442 195.731 68.0838C200.603 63.4906 206.899 63.4024 211.542 68.1892C213.635 70.3471 215.282 73.0016 216.52 75.662C219.571 82.2169 220.561 89.217 221.201 96.2531C221.261 96.905 221.37 97.5538 221.456 98.2039C221.935 97.8221 222.042 97.4606 222.019 97.1058C221.584 90.4078 220.553 83.7989 218.216 77.4035C216.759 73.4177 214.852 69.6349 211.445 66.6521C206.661 62.4646 200.206 62.4407 195.381 66.5774C191.881 69.5795 189.976 73.4249 188.529 77.4733C185.569 85.7561 184.669 94.3176 184.526 102.961C184.361 112.957 184.892 122.897 188.025 132.579C189.27 136.428 190.889 140.128 193.688 143.312C199.028 149.388 207.809 149.503 213.004 143.33C214.976 140.988 216.528 138.249 217.707 135.494C220.638 128.645 221.57 121.409 222.053 114.125C222.073 113.828 221.954 113.522 221.899 113.221C221.393 113.791 221.308 114.383 221.226 114.975C220.708 118.697 220.351 122.444 219.634 126.135C218.553 131.706 216.939 137.165 213.131 141.808C207.706 148.422 199.424 148.377 194.133 141.707C190.597 137.251 189.017 132.094 187.982 126.779C188.693 128.099 189.234 129.486 189.961 130.788C190.695 132.105 191.616 133.338 192.456 134.607ZM315.166 126.795C313.882 132.514 312.282 138.13 308.045 142.754C303.224 148.015 295.565 148.147 290.936 142.773C288.749 140.233 287.095 137.198 285.805 134.177C283.191 128.052 282.46 121.545 281.887 115.041C281.832 114.417 281.673 113.801 281.561 113.181C281.098 113.634 281.002 114.033 281.059 114.412C281.828 119.521 282.364 124.673 283.474 129.721C284.617 134.921 286.626 139.903 290.641 143.98C295.691 149.108 303.343 149.341 308.387 144.217C310.497 142.075 312.144 139.418 313.402 136.763C316.658 129.893 317.739 122.547 318.258 115.155C319.111 102.991 318.774 90.8841 315.102 79.0446C313.638 74.3262 311.581 69.8289 307.479 66.3811C302.998 62.6163 296.612 62.5024 292.151 66.2807C290.519 67.6624 289.055 69.3305 287.977 71.0976C282.921 79.38 281.719 88.52 281.055 97.7541C281.044 97.9072 281.239 98.0724 281.62 98.6865C281.761 97.565 281.82 96.946 281.919 96.3323C282.679 91.6369 283.203 86.8969 284.276 82.2605C285.463 77.1293 287.432 72.2043 291.425 68.1865C297.327 62.2476 306.206 64.2929 309.807 71.3066C308.971 71.239 308.064 71.1661 307.157 71.0927C307.247 71.9832 307.184 72.9143 307.459 73.7558C308.155 75.8907 308.981 77.9924 309.8 80.0927C310.122 80.9171 310.463 81.7635 310.981 82.491C311.709 83.5131 312.622 83.5693 313.447 82.5104C313.691 82.197 313.887 81.8535 314.106 81.524C314.321 81.5276 314.535 81.5312 314.75 81.5348C315.56 86.6192 316.368 91.7036 317.178 96.7879C317.002 96.8109 316.827 96.8334 316.651 96.8564C315.398 90.379 314.326 87.6947 312.322 86.648C312.248 87.7501 312.098 88.7109 312.134 89.6658C312.26 92.9484 312.459 96.2283 312.616 99.51C313.123 110.171 311.986 120.719 309.972 131.21C309.774 132.242 309.837 133.316 309.779 134.37C309.999 134.417 310.219 134.463 310.439 134.51C312.916 132.424 313.632 129.395 315.166 126.795ZM313.11 139.689C315.71 139.571 317.851 138.436 319.821 136.394C322.66 133.451 324.242 129.938 325.427 126.249C327.343 120.287 327.997 114.165 328.107 107.994C328.272 98.8014 327.636 89.6901 323.789 81.0233C322.164 77.3634 319.811 74.1677 315.832 72.2259C315.167 71.9013 314.382 71.777 313.653 71.56C313.588 71.6861 313.522 71.8122 313.457 71.9387C315.504 73.3321 317.552 74.7256 319.599 76.119C319.657 76.3013 319.715 76.4837 319.773 76.666C317.111 76.5598 317.564 77.7623 318.031 78.9523C318.94 81.2696 319.798 83.6063 320.82 85.8826C321.132 86.5773 321.806 87.3175 322.526 87.6056C322.853 87.7366 323.695 86.8164 324.648 86.123C325.361 90.0742 326.061 93.9479 326.761 97.8221C325.243 95.3589 325.206 92.4158 322.677 90.3353C322.263 91.4861 322.049 92.6121 322.038 93.7399C322 97.3746 322.229 101.02 322.005 104.643C321.537 112.184 320.836 119.714 320.258 127.25C320.2 128.008 320.323 128.779 320.362 129.544C320.569 129.6 320.777 129.656 320.985 129.712C322.035 128.29 323.086 126.868 324.136 125.446C323.706 127.398 323.115 129.311 322.135 131.046C321.142 132.803 319.973 134.558 318.496 135.99C317.089 137.354 315.184 138.3 313.11 139.689ZM189.631 71.927C189.502 71.7401 189.372 71.5533 189.243 71.366C187.978 71.9877 186.6 72.4762 185.472 73.2583C182.797 75.1114 180.898 77.5228 179.589 80.3484C176.272 87.5079 175.239 95.0469 175.008 102.704C174.748 111.36 175.307 119.954 178.374 128.252C179.722 131.901 181.547 135.358 184.973 137.83C186.223 138.731 187.756 139.315 189.159 140.043C189.395 139.82 189.632 139.598 189.868 139.375C182.904 136.473 180.315 130.986 178.482 124.631C179.83 126.518 180.968 128.112 182.107 129.707C182.302 129.616 182.498 129.525 182.693 129.434C182.693 128 182.794 126.56 182.675 125.134C182.201 119.469 181.494 113.817 181.189 108.146C180.914 103.055 181.068 97.9459 180.991 92.8453C180.979 92.0147 180.744 91.1862 180.581 90.1669C180.066 90.4416 179.74 90.5091 179.668 90.6694C178.624 92.9768 177.615 95.2968 176.598 97.6137C176.515 97.6069 176.432 97.5997 176.349 97.5929C177.047 93.7858 177.746 89.9787 178.45 86.1406C179.422 86.8245 180.288 87.7299 180.602 87.5943C181.32 87.285 181.975 86.5408 182.288 85.8394C183.307 83.5608 184.158 81.221 185.077 78.9064C185.576 77.6502 185.844 76.5143 183.309 76.7529C183.33 76.5791 183.351 76.4049 183.371 76.2311C185.458 74.7971 187.545 73.3618 189.631 71.927ZM177.082 128.517C175.511 127.183 173.709 126.007 172.432 124.473C171.106 122.881 170.29 120.943 169.25 119.156C169.374 119.098 169.498 119.041 169.622 118.983C170.605 119.936 171.588 120.89 172.87 122.134C172.236 113.201 171.642 104.838 171.049 96.4759C170.828 96.4138 170.607 96.3512 170.386 96.2891C169.523 97.9158 168.659 99.542 167.796 101.169C167.723 101.143 167.651 101.117 167.578 101.092C168.037 98.5857 168.496 96.0788 168.991 93.373C170.721 94.874 171.357 94.7984 172.023 93.1938C172.613 91.7684 173.105 90.3079 173.61 88.8545C173.961 87.8442 174.026 86.951 172.149 86.82C173.83 85.5157 175.512 84.2118 177.193 82.9075C177.041 82.7184 176.888 82.5293 176.735 82.3402C175.491 83.0727 174.117 83.6756 173.028 84.5643C170.545 86.5921 169.214 89.289 168.31 92.1335C165.809 100.004 165.699 107.973 167.371 115.978C168.123 119.577 169.361 123.032 172.016 125.912C173.295 127.301 174.769 128.477 177.082 128.517ZM335.521 101.116C335.44 101.106 335.359 101.094 335.278 101.084C334.398 99.4812 333.518 97.8784 332.638 96.276C332.442 96.3526 332.247 96.4287 332.052 96.5052C331.456 104.869 330.862 113.233 330.267 121.598C330.384 121.679 330.5 121.76 330.617 121.841C331.582 120.843 332.546 119.845 333.51 118.847C332.852 120.806 332.089 122.771 330.776 124.367C329.476 125.949 327.62 127.16 326.008 128.534C326.152 128.706 326.296 128.879 326.44 129.052C327.681 128.306 329.049 127.686 330.139 126.79C332.614 124.756 333.934 122.051 334.834 119.214C337.313 111.401 337.335 103.489 335.739 95.5431C335.038 92.0493 333.776 88.7361 331.384 85.8614C330.054 84.2631 328.434 83.0021 326.252 82.5365C326.133 82.659 326.014 82.7814 325.895 82.9039C327.583 84.2046 329.271 85.5053 330.96 86.8056C331.027 86.9586 331.095 87.1117 331.162 87.2648C328.731 86.9105 329.213 88.0513 329.532 89.0207C329.956 90.3115 330.424 91.5946 330.97 92.8462C331.219 93.418 331.591 94.1816 332.112 94.3531C332.597 94.513 333.353 94.0029 334.194 93.7188C334.634 96.1779 335.078 98.6474 335.521 101.116ZM295.061 67.7817C297.975 68.1964 298.999 68.6705 300.43 70.7028C301.503 72.2259 302.485 73.844 303.188 75.5283C306.215 82.7814 307.468 90.3659 307.954 98.0589C308.708 110.008 308.12 121.87 304.344 133.436C302.962 137.669 301.587 142.009 296.647 144.298C300.646 146.329 306.228 144.095 308.095 139.69C305.915 141.607 304.006 143.673 300.779 143.335C302.06 140.813 303.457 138.51 304.427 136.069C307.119 129.287 308.312 122.217 308.827 115.059C309.738 102.407 309.373 89.818 305.08 77.6205C304.045 74.681 301.975 71.9999 300.118 69.3503C299.153 67.9735 297.432 67.3563 295.061 67.7817ZM194.695 139.354C197.018 144.183 202.668 146.476 206.48 144.212C202.767 142.821 201.358 139.84 200.002 136.843C199.489 135.708 199.056 134.535 198.703 133.35C193.918 117.261 193.601 101.015 197.119 84.739C198.065 80.3646 199.978 76.1276 201.808 71.9562C202.789 69.7209 204.655 67.897 207.753 67.802C204.925 67.2707 202.955 68.6286 201.836 70.5866C199.977 73.8409 198.171 77.1991 197.041 80.6973C194.626 88.1693 193.895 95.9082 193.902 103.668C193.915 117.307 194.812 130.821 202.321 143.343C198.915 143.663 196.993 141.434 194.695 139.354ZM294.26 119.654C295.07 119.189 296.145 118.882 296.628 118.222C297.396 117.173 297.919 115.924 298.282 114.696C299.584 110.289 299.847 105.777 299.138 101.289C298.722 98.6595 297.814 96.0752 296.899 93.5378C296.498 92.4248 295.453 91.6162 294.065 92.0048C298.31 101.142 298.254 110.161 294.26 119.654ZM209.297 119.267C206.369 115.053 205.972 110.403 205.971 105.703C205.969 100.967 206.368 96.2823 209.41 91.9566C206.881 91.8071 206.102 93.2577 205.506 94.743C203.497 99.7518 203.253 104.952 203.957 110.164C204.29 112.634 205.108 115.07 205.931 117.458C206.358 118.695 207.326 119.721 209.297 119.267ZM157.109 105.309C157.111 105.039 157.113 104.768 157.115 104.497C159.045 104.497 160.975 104.502 162.905 104.496C165.225 104.489 165.28 104.424 164.879 102.023C162.455 102.023 159.978 102.023 157.502 102.023C157.434 101.811 157.367 101.599 157.299 101.387C157.818 101.177 158.329 100.811 158.859 100.786C160.543 100.707 162.236 100.794 163.922 100.731C164.389 100.713 164.842 100.396 165.301 100.216C165.249 100.039 165.197 99.8625 165.145 99.686C162.887 99.686 160.626 99.7468 158.372 99.6622C157.124 99.6149 156.586 100.165 156.332 101.111C155.505 104.182 155.449 107.262 156.376 110.322C156.519 110.794 156.933 111.558 157.251 111.571C159.896 111.672 162.549 111.628 165.199 111.628C165.227 111.422 165.255 111.215 165.284 111.01C164.82 110.888 164.36 110.681 163.89 110.66C162.724 110.609 161.553 110.642 160.384 110.642C157.266 110.643 156.611 109.911 157.235 106.893C159.761 106.893 162.329 106.893 164.851 106.893C165.344 105.519 164.626 105.293 163.53 105.304C161.39 105.324 159.249 105.309 157.109 105.309ZM345.959 106.904C346.344 110.093 345.819 110.643 342.618 110.643C341.45 110.643 340.28 110.604 339.116 110.666C338.672 110.69 338.243 110.948 337.807 111.099C337.845 111.304 337.882 111.509 337.92 111.713C340.144 111.713 342.37 111.647 344.589 111.738C345.884 111.791 346.488 111.299 346.781 110.249C347.623 107.236 347.655 104.221 346.784 101.219C346.632 100.695 346.17 99.8495 345.815 99.8337C343.179 99.7153 340.534 99.7698 337.892 99.7698C337.868 99.9872 337.844 100.205 337.82 100.422C338.36 100.534 338.898 100.727 339.442 100.742C341.062 100.786 342.688 100.709 344.305 100.794C344.802 100.82 345.276 101.211 345.761 101.435C345.684 101.649 345.608 101.862 345.532 102.075C343.051 102.075 340.57 102.075 338.124 102.075C337.869 104.466 337.927 104.52 340.244 104.511C342.168 104.504 344.092 104.51 346.015 104.51C346.011 104.771 346.006 105.033 346.001 105.295C343.919 105.295 341.833 105.241 339.755 105.33C339.186 105.354 338.638 105.809 338.08 106.066C338.656 106.346 339.22 106.837 339.811 106.866C341.866 106.965 343.931 106.904 345.959 106.904ZM297.277 130.255C294.102 132.168 292.318 131.897 290.502 128.953C289.657 127.582 288.865 126.115 288.471 124.602C287.582 121.191 286.869 117.737 286.265 114.275C286.021 112.874 285.481 112.564 283.894 113.219C284.248 115.561 284.48 117.95 284.991 120.29C285.87 124.312 286.783 128.361 289.552 131.769C291.735 134.454 294.127 134.417 296.279 131.736C296.653 131.27 296.946 130.75 297.277 130.255ZM219.142 98.3646C218.933 96.6344 218.81 95.01 218.53 93.4081C217.699 88.6461 216.71 83.9156 213.707 79.7838C212.797 78.5318 211.68 77.3742 209.778 77.6858C207.652 78.0343 206.714 79.5376 205.633 81.4335C209.169 79.2643 211.047 79.5952 212.8 82.7868C213.942 84.8646 214.785 87.123 215.395 89.3808C216.189 92.3208 216.62 95.3405 217.215 98.3646C217.798 98.3646 218.352 98.3646 219.142 98.3646ZM286.034 98.4434C286.213 97.1589 286.343 96.1171 286.504 95.0798C287.156 90.9003 287.901 86.7227 290.183 82.9723C290.864 81.8522 291.953 80.5564 293.169 80.1904C294.296 79.8509 295.843 80.6465 297.101 80.9198C296.508 79.3836 295.383 77.851 293.148 77.6421C291.155 77.4557 289.955 78.8379 289.069 80.2174C285.502 85.7759 284.617 91.9462 283.968 98.3354C284.754 98.3768 285.3 98.4052 286.034 98.4434ZM205.987 130.27C206.899 132.171 207.95 133.413 209.816 133.693C211.68 133.972 212.843 132.817 213.722 131.553C217.636 125.919 218.416 119.554 219.108 113.169C217.145 112.786 217.139 112.785 216.912 114.192C216.8 114.887 216.726 115.586 216.612 116.28C215.895 120.622 215.101 124.959 212.688 128.857C210.913 131.725 209.321 132.092 205.987 130.27Z" fill=""/>
  <path d="M251.753 111.712C239.089 111.713 226.425 111.679 213.762 111.753C212.045 111.763 211.042 111.254 210.995 109.808C210.902 106.97 210.956 104.123 211.098 101.285C211.153 100.179 211.931 99.6554 213.34 99.6577C238.993 99.6968 264.646 99.6928 290.298 99.6685C291.452 99.6676 292.106 99.9724 292.422 101.003C293.378 104.131 293.333 107.236 292.438 110.371C292.07 111.659 291.138 111.728 289.939 111.726C277.21 111.703 264.482 111.712 251.753 111.712ZM291.894 107.03C265.058 107.03 238.465 107.03 211.883 107.03C211.592 110.157 212.097 110.676 215.277 110.675C220.603 110.672 225.929 110.672 231.256 110.672C250.548 110.671 269.84 110.65 289.132 110.704C290.771 110.709 291.561 110.262 291.688 108.823C291.733 108.307 291.805 107.793 291.894 107.03ZM212.154 101.259C212.243 101.445 212.331 101.631 212.42 101.817C238.726 101.817 265.033 101.817 291.34 101.817C291.374 101.594 291.408 101.371 291.442 101.149C290.624 101.007 289.805 100.743 288.987 100.742C267.995 100.72 247.003 100.726 226.011 100.727C221.982 100.727 217.952 100.705 213.924 100.75C213.331 100.757 212.744 101.082 212.154 101.259ZM291.702 105.105C291.709 104.964 291.715 104.824 291.722 104.684C265.075 104.684 238.428 104.684 211.781 104.684C211.781 104.824 211.781 104.964 211.781 105.105C238.421 105.105 265.061 105.105 291.702 105.105Z" fill="black"/>
  <path d="M192.456 134.607C191.616 133.338 190.695 132.105 189.96 130.789C189.232 129.486 188.692 128.099 187.98 126.78C189.016 132.095 190.595 137.251 194.131 141.707C199.423 148.377 207.704 148.422 213.129 141.808C216.937 137.165 218.552 131.706 219.633 126.135C220.349 122.444 220.706 118.697 221.224 114.975C221.306 114.383 221.392 113.791 221.898 113.222C221.952 113.523 222.072 113.828 222.052 114.125C221.569 121.409 220.637 128.646 217.706 135.495C216.527 138.25 214.974 140.989 213.003 143.331C207.808 149.503 199.026 149.389 193.686 143.312C190.887 140.128 189.269 136.429 188.023 132.579C184.891 122.897 184.36 112.957 184.524 102.961C184.667 94.318 185.567 85.7565 188.528 77.4737C189.975 73.4258 191.88 69.5799 195.38 66.5792C200.204 62.4425 206.659 62.4668 211.443 66.6539C214.851 69.6367 216.757 73.419 218.214 77.4053C220.552 83.8007 221.583 90.4096 222.018 97.1076C222.041 97.4624 221.933 97.8239 221.454 98.2057C221.368 97.5556 221.259 96.9072 221.2 96.2549C220.559 89.2183 219.57 82.2187 216.519 75.6638C215.28 73.003 213.633 70.3489 211.54 68.191C206.898 63.4042 200.601 63.4924 195.729 68.0856C194.711 69.0455 193.897 70.1823 192.955 71.2759C193.262 71.3961 193.373 71.4817 193.47 71.4704C194.31 71.3718 195.148 71.2561 195.986 71.1454C195.914 71.9265 195.993 72.75 195.742 73.4816C194.881 75.9988 193.986 78.5133 192.927 80.9661C192.559 81.818 191.813 82.7382 190.961 83.1245C190.59 83.2924 189.514 82.1912 188.409 81.424C187.571 86.4553 186.734 91.4811 185.898 96.5075C186.071 96.5345 186.243 96.5615 186.417 96.5885C187.47 93.242 187.694 89.6213 190.019 86.6957C190.245 86.716 190.472 86.7367 190.699 86.7569C190.787 87.6362 190.975 88.5182 190.945 89.3943C190.811 93.3217 190.617 97.2476 190.44 101.174C189.982 111.31 191.28 121.317 193.146 131.285C193.332 132.28 193.29 133.309 193.354 134.323C193.055 134.416 192.756 134.512 192.456 134.607Z" fill="#DDDDDD"/>
  <path d="M315.166 126.795C313.632 129.395 312.916 132.424 310.438 134.509C310.218 134.462 309.998 134.416 309.778 134.369C309.836 133.315 309.773 132.241 309.971 131.209C311.985 120.718 313.122 110.17 312.615 99.5091C312.458 96.2274 312.259 92.9475 312.133 89.6649C312.097 88.71 312.247 87.7492 312.321 86.6471C314.326 87.6938 315.397 90.3781 316.65 96.8555C316.826 96.8325 317.001 96.81 317.177 96.787C316.367 91.7027 315.559 86.6183 314.749 81.5339C314.534 81.5303 314.32 81.5267 314.105 81.5231C313.887 81.8526 313.69 82.1961 313.446 82.5095C312.621 83.5684 311.708 83.5122 310.98 82.4901C310.461 81.7626 310.121 80.9162 309.799 80.0918C308.98 77.9915 308.154 75.8898 307.458 73.7549C307.183 72.9134 307.247 71.9823 307.156 71.0918C308.063 71.1652 308.97 71.2381 309.806 71.3057C306.205 64.292 297.327 62.2467 291.424 68.1856C287.431 72.2034 285.462 77.1284 284.275 82.2596C283.202 86.896 282.678 91.636 281.918 96.3314C281.819 96.9451 281.76 97.5641 281.619 98.6856C281.238 98.072 281.043 97.9068 281.054 97.7532C281.718 88.5191 282.92 79.3791 287.976 71.0967C289.054 69.3296 290.518 67.6615 292.15 66.2798C296.611 62.502 302.997 62.6154 307.478 66.3802C311.58 69.8276 313.637 74.3253 315.101 79.0437C318.773 90.8832 319.111 102.991 318.257 115.154C317.738 122.546 316.657 129.892 313.401 136.762C312.143 139.417 310.496 142.074 308.386 144.216C303.342 149.34 295.69 149.106 290.64 143.979C286.625 139.902 284.616 134.92 283.473 129.721C282.363 124.672 281.827 119.52 281.058 114.412C281.001 114.032 281.097 113.634 281.56 113.18C281.672 113.8 281.831 114.417 281.886 115.041C282.459 121.544 283.19 128.052 285.804 134.176C287.094 137.197 288.748 140.232 290.935 142.772C295.564 148.146 303.223 148.014 308.044 142.753C312.282 138.13 313.882 132.515 315.166 126.795Z" fill="black"/>
  <path d="M313.11 139.689C315.184 138.3 317.089 137.354 318.496 135.99C319.973 134.558 321.142 132.803 322.135 131.046C323.115 129.312 323.707 127.398 324.136 125.446C323.085 126.868 322.035 128.29 320.985 129.712C320.777 129.656 320.569 129.6 320.362 129.544C320.323 128.779 320.2 128.008 320.258 127.25C320.836 119.713 321.537 112.184 322.005 104.643C322.229 101.019 322 97.3741 322.038 93.7399C322.049 92.6121 322.263 91.4865 322.678 90.3353C325.206 92.4163 325.242 95.3594 326.761 97.8221C326.061 93.9484 325.361 90.0742 324.648 86.123C323.695 86.8164 322.853 87.7362 322.526 87.6056C321.806 87.3175 321.133 86.5773 320.82 85.8826C319.798 83.6063 318.94 81.2696 318.031 78.9523C317.565 77.7623 317.111 76.5598 319.773 76.666C319.716 76.4837 319.658 76.3013 319.599 76.119C317.552 74.7256 315.504 73.3321 313.457 71.9387C313.522 71.8126 313.588 71.6865 313.653 71.56C314.382 71.777 315.167 71.9017 315.832 72.2259C319.811 74.1677 322.164 77.3634 323.789 81.0233C327.636 89.6901 328.271 98.8014 328.107 107.994C327.997 114.164 327.343 120.287 325.427 126.249C324.242 129.938 322.66 133.451 319.821 136.394C317.851 138.436 315.71 139.571 313.11 139.689Z" fill="#DDDDDD"/>
  <path d="M189.631 71.927C187.545 73.3618 185.458 74.7971 183.372 76.232C183.351 76.4058 183.33 76.58 183.31 76.7538C185.845 76.5152 185.577 77.6511 185.078 78.9073C184.159 81.2219 183.307 83.5617 182.289 85.8403C181.976 86.5417 181.321 87.2859 180.603 87.5952C180.289 87.7308 179.423 86.8254 178.451 86.1415C177.747 89.9792 177.048 93.7863 176.35 97.5938C176.432 97.6006 176.515 97.6078 176.599 97.6146C177.616 95.2977 178.625 92.9777 179.669 90.6703C179.741 90.51 180.067 90.4425 180.582 90.1678C180.745 91.1871 180.979 92.0151 180.992 92.8462C181.07 97.9468 180.915 103.056 181.19 108.147C181.496 113.818 182.202 119.47 182.676 125.135C182.795 126.56 182.694 128.001 182.694 129.435C182.499 129.526 182.303 129.617 182.108 129.708C180.969 128.113 179.831 126.519 178.483 124.632C180.316 130.987 182.905 136.473 189.869 139.376C189.633 139.599 189.396 139.821 189.16 140.044C187.756 139.316 186.224 138.732 184.974 137.83C181.548 135.359 179.723 131.901 178.375 128.253C175.308 119.955 174.749 111.361 175.009 102.705C175.24 95.0478 176.272 87.5088 179.59 80.3493C180.899 77.5233 182.798 75.1119 185.473 73.2592C186.602 72.4771 187.979 71.9886 189.244 71.3669C189.372 71.5533 189.501 71.7401 189.631 71.927Z" fill="black"/>
  <path d="M177.082 128.517C174.77 128.477 173.295 127.3 172.016 125.912C169.361 123.032 168.123 119.577 167.371 115.978C165.699 107.973 165.809 100.004 168.31 92.1335C169.214 89.2885 170.545 86.5917 173.028 84.5643C174.117 83.676 175.491 83.0727 176.735 82.3402C176.888 82.5293 177.041 82.7184 177.193 82.9075C175.512 84.2118 173.83 85.5157 172.149 86.82C174.026 86.9505 173.961 87.8442 173.61 88.8545C173.105 90.3083 172.614 91.7684 172.023 93.1938C171.357 94.7984 170.721 94.8745 168.991 93.373C168.496 96.0788 168.037 98.5857 167.578 101.092C167.651 101.118 167.723 101.143 167.796 101.169C168.659 99.542 169.523 97.9158 170.386 96.2891C170.607 96.3512 170.828 96.4138 171.049 96.4759C171.642 104.839 172.236 113.202 172.87 122.134C171.588 120.89 170.605 119.937 169.622 118.983C169.498 119.041 169.374 119.098 169.25 119.156C170.29 120.943 171.106 122.881 172.432 124.473C173.709 126.007 175.511 127.184 177.082 128.517Z" fill="#DDDDDD"/>
  <path d="M335.521 101.116C335.078 98.6469 334.634 96.1774 334.193 93.7179C333.352 94.0019 332.596 94.5121 332.111 94.3522C331.59 94.1811 331.218 93.4171 330.969 92.8453C330.423 91.5937 329.956 90.3101 329.531 89.0198C329.212 88.0504 328.73 86.9096 331.161 87.2639C331.094 87.1108 331.026 86.9577 330.959 86.8046C329.27 85.5039 327.582 84.2032 325.894 82.903C326.013 82.7805 326.132 82.6581 326.251 82.5356C328.433 83.0011 330.053 84.2618 331.383 85.8605C333.775 88.7352 335.037 92.0484 335.738 95.5422C337.334 103.488 337.313 111.4 334.833 119.213C333.933 122.05 332.613 124.755 330.138 126.79C329.048 127.686 327.68 128.306 326.439 129.051C326.295 128.878 326.151 128.705 326.007 128.533C327.619 127.159 329.474 125.949 330.775 124.366C332.088 122.77 332.851 120.805 333.509 118.846C332.545 119.844 331.581 120.842 330.616 121.84C330.499 121.759 330.383 121.678 330.266 121.597C330.861 113.232 331.456 104.869 332.051 96.5043C332.246 96.4282 332.441 96.3517 332.637 96.2751C333.517 97.8775 334.397 99.4803 335.277 101.083C335.359 101.095 335.44 101.106 335.521 101.116Z" fill="#DDDDDD"/>
  <path d="M295.061 67.7817C297.432 67.3567 299.153 67.9735 300.119 69.3508C301.976 72.0003 304.046 74.6814 305.081 77.621C309.374 89.8185 309.738 102.407 308.828 115.059C308.313 122.218 307.12 129.288 304.427 136.069C303.458 138.51 302.061 140.813 300.78 143.335C304.007 143.673 305.915 141.607 308.096 139.69C306.229 144.095 300.647 146.329 296.648 144.299C301.587 142.01 302.963 137.669 304.345 133.436C308.12 121.87 308.708 110.009 307.954 98.0594C307.469 90.3664 306.215 82.7819 303.188 75.5288C302.485 73.8445 301.503 72.2264 300.431 70.7033C298.999 68.67 297.975 68.1964 295.061 67.7817Z" fill="#DDDDDD"/>
  <path d="M194.695 139.354C196.993 141.435 198.915 143.664 202.32 143.343C194.812 130.821 193.914 117.307 193.902 103.668C193.895 95.9078 194.626 88.1688 197.04 80.6969C198.171 77.1986 199.976 73.84 201.836 70.5862C202.955 68.6286 204.925 67.2703 207.752 67.8015C204.654 67.8965 202.789 69.7204 201.808 71.9558C199.978 76.1267 198.064 80.3642 197.119 84.7386C193.6 101.014 193.917 117.261 198.703 133.35C199.055 134.534 199.488 135.708 200.002 136.843C201.357 139.84 202.767 142.821 206.479 144.211C202.667 146.476 197.018 144.183 194.695 139.354Z" fill="#DDDDDD"/>
  <path d="M294.26 119.654C298.254 110.162 298.31 101.142 294.065 92.0048C295.452 91.6162 296.498 92.4253 296.899 93.5378C297.814 96.0752 298.722 98.66 299.138 101.289C299.847 105.777 299.584 110.289 298.282 114.696C297.919 115.924 297.396 117.173 296.628 118.222C296.145 118.882 295.069 119.189 294.26 119.654Z" fill="#DDDDDD"/>
  <path d="M209.297 119.267C207.326 119.72 206.358 118.695 205.931 117.458C205.107 115.07 204.289 112.634 203.956 110.164C203.253 104.952 203.497 99.7518 205.505 94.743C206.101 93.2577 206.881 91.8071 209.41 91.9566C206.368 96.2823 205.969 100.967 205.97 105.703C205.972 110.403 206.369 115.053 209.297 119.267Z" fill="#DDDDDD"/>
  <path d="M157.109 105.309C159.249 105.309 161.39 105.324 163.53 105.304C164.625 105.293 165.344 105.519 164.851 106.893C162.328 106.893 159.76 106.893 157.235 106.893C156.611 109.911 157.266 110.643 160.384 110.642C161.553 110.642 162.724 110.609 163.89 110.66C164.36 110.681 164.819 110.887 165.284 111.01C165.255 111.216 165.227 111.422 165.199 111.628C162.549 111.628 159.896 111.671 157.251 111.571C156.933 111.558 156.518 110.794 156.376 110.322C155.448 107.262 155.504 104.182 156.331 101.111C156.585 100.165 157.123 99.6149 158.371 99.6617C160.625 99.7468 162.886 99.6856 165.144 99.6856C165.196 99.8621 165.248 100.039 165.3 100.215C164.841 100.395 164.388 100.713 163.921 100.73C162.236 100.794 160.542 100.707 158.858 100.785C158.328 100.81 157.817 101.176 157.298 101.387C157.366 101.599 157.433 101.811 157.501 102.022C159.978 102.022 162.454 102.022 164.878 102.022C165.279 104.424 165.224 104.488 162.904 104.495C160.974 104.501 159.044 104.497 157.114 104.497C157.113 104.768 157.111 105.039 157.109 105.309Z" fill="#DDDDDD"/>
  <path d="M345.959 106.904C343.931 106.904 341.866 106.965 339.811 106.865C339.22 106.837 338.657 106.345 338.08 106.065C338.638 105.808 339.186 105.354 339.755 105.329C341.833 105.24 343.918 105.294 346.001 105.294C346.006 105.032 346.011 104.77 346.015 104.509C344.092 104.509 342.168 104.503 340.244 104.51C337.927 104.519 337.869 104.465 338.124 102.074C340.57 102.074 343.051 102.074 345.532 102.074C345.608 101.861 345.684 101.648 345.761 101.434C345.276 101.21 344.803 100.819 344.305 100.793C342.688 100.709 341.062 100.785 339.442 100.741C338.898 100.726 338.36 100.533 337.82 100.421C337.844 100.204 337.868 99.9863 337.892 99.7689C340.534 99.7689 343.179 99.7149 345.815 99.8328C346.171 99.8486 346.632 100.695 346.784 101.218C347.655 104.22 347.624 107.235 346.781 110.248C346.487 111.298 345.883 111.79 344.589 111.737C342.37 111.646 340.144 111.712 337.92 111.712C337.882 111.507 337.845 111.303 337.807 111.098C338.243 110.947 338.672 110.689 339.116 110.665C340.279 110.603 341.45 110.642 342.618 110.642C345.819 110.643 346.344 110.093 345.959 106.904Z" fill="#DDDDDD"/>
  <path d="M297.277 130.255C296.946 130.75 296.653 131.27 296.279 131.736C294.127 134.416 291.735 134.454 289.552 131.768C286.783 128.361 285.87 124.312 284.991 120.289C284.48 117.95 284.248 115.561 283.895 113.219C285.482 112.563 286.021 112.874 286.266 114.275C286.87 117.736 287.582 121.191 288.471 124.601C288.865 126.114 289.657 127.582 290.502 128.952C292.318 131.897 294.102 132.168 297.277 130.255Z" fill="#DDDDDD"/>
  <path d="M219.142 98.3646C218.353 98.3646 217.798 98.3646 217.215 98.3646C216.62 95.3405 216.189 92.3208 215.395 89.3808C214.785 87.123 213.942 84.8646 212.8 82.7868C211.047 79.5952 209.169 79.2638 205.633 81.4335C206.714 79.538 207.652 78.0343 209.778 77.6858C211.68 77.3738 212.797 78.5313 213.707 79.7838C216.71 83.9156 217.699 88.6465 218.53 93.4081C218.81 95.0105 218.933 96.6344 219.142 98.3646Z" fill="#DDDDDD"/>
  <path d="M286.034 98.4434C285.3 98.4052 284.754 98.3768 283.968 98.3358C284.617 91.9462 285.502 85.7763 289.069 80.2179C289.955 78.8384 291.155 77.4562 293.148 77.6426C295.383 77.8515 296.508 79.384 297.101 80.9202C295.843 80.6469 294.296 79.8514 293.169 80.1908C291.953 80.5569 290.864 81.8531 290.183 82.9728C287.901 86.7232 287.155 90.9008 286.504 95.0802C286.343 96.1171 286.213 97.1589 286.034 98.4434Z" fill="#DDDDDD"/>
  <path d="M205.987 130.27C209.321 132.092 210.913 131.725 212.689 128.857C215.102 124.959 215.895 120.622 216.612 116.279C216.727 115.585 216.801 114.886 216.913 114.191C217.14 112.784 217.145 112.785 219.108 113.168C218.417 119.554 217.637 125.918 213.722 131.552C212.844 132.817 211.68 133.972 209.816 133.692C207.95 133.413 206.9 132.171 205.987 130.27Z" fill="#DDDDDD"/>
  <path d="M291.894 107.03C291.805 107.792 291.733 108.307 291.688 108.823C291.561 110.262 290.771 110.709 289.132 110.704C269.84 110.65 250.548 110.671 231.256 110.672C225.929 110.672 220.603 110.672 215.277 110.675C212.097 110.676 211.592 110.157 211.883 107.03C238.465 107.03 265.058 107.03 291.894 107.03Z" fill="black"/>
  <path d="M212.154 101.259C212.744 101.082 213.331 100.757 213.923 100.75C217.952 100.705 221.982 100.727 226.011 100.727C247.003 100.726 267.994 100.72 288.986 100.742C289.805 100.743 290.623 101.007 291.442 101.148C291.408 101.371 291.374 101.594 291.339 101.816C265.033 101.816 238.726 101.816 212.419 101.816C212.331 101.631 212.242 101.445 212.154 101.259Z" fill="black"/>
  <path d="M291.702 105.105C265.062 105.105 238.421 105.105 211.781 105.105C211.781 104.964 211.781 104.824 211.781 104.684C238.428 104.684 265.075 104.684 291.722 104.684C291.715 104.824 291.708 104.964 291.702 105.105Z" fill="black"/>
</svg>
